<svg xmlns="http://www.w3.org/2000/svg" xmlns:xlink="http://www.w3.org/1999/xlink" width="200" height="165.007" viewBox="0 0 200 165.007"><defs><clipPath id="a"><rect width="200" height="165.007" fill="none"/></clipPath></defs><g clip-path="url(#a)"><path d="M172.669,56.083a9.968,9.968,0,0,0-12.729,0q-2.692,2.3-2.691,7.152v49.344q0,4.856,2.691,7.152a9.965,9.965,0,0,0,12.729,0q2.688-2.294,2.69-7.152V63.235q0-4.853-2.69-7.152" transform="translate(-15.799 -5.404)" fill="#fe9d2b"/><path d="M0,165.007H200V0H0ZM72.984,62.687H59.6V59.669a14.289,14.289,0,0,0-2.165-7.94q-2.166-3.345-7.283-3.345a8.415,8.415,0,0,0-4.462,1.05,8.776,8.776,0,0,0-2.756,2.625,11.088,11.088,0,0,0-1.445,3.871,25.338,25.338,0,0,0-.393,4.527,44.351,44.351,0,0,0,.2,4.594,8.677,8.677,0,0,0,.985,3.28,7.245,7.245,0,0,0,2.3,2.494,20.961,20.961,0,0,0,4.133,2.1l10.237,4.068a25.434,25.434,0,0,1,7.218,4,17.307,17.307,0,0,1,4.331,5.314,24.869,24.869,0,0,1,1.968,7.152,70.979,70.979,0,0,1,.524,9.121A48.1,48.1,0,0,1,71.8,113.54a23.081,23.081,0,0,1-3.807,8.6,18.874,18.874,0,0,1-7.217,5.774,25.5,25.5,0,0,1-10.892,2.1,23.852,23.852,0,0,1-9.056-1.706,21.452,21.452,0,0,1-7.217-4.725,22.911,22.911,0,0,1-4.79-7.02,21.292,21.292,0,0,1-1.772-8.728v-4.985H40.439v4.2a10.934,10.934,0,0,0,2.165,6.628q2.164,2.952,7.284,2.953a11.736,11.736,0,0,0,5.314-.985,7.064,7.064,0,0,0,2.953-2.822,10.368,10.368,0,0,0,1.247-4.4q.2-2.56.2-5.709a56.737,56.737,0,0,0-.262-6.037,10.407,10.407,0,0,0-1.051-3.805,7.39,7.39,0,0,0-2.427-2.362,31.407,31.407,0,0,0-4-1.969L42.277,84.6q-8.662-3.543-11.615-9.382T27.708,60.587a33.883,33.883,0,0,1,1.445-9.973,22.691,22.691,0,0,1,4.33-8.137,19.879,19.879,0,0,1,7.022-5.446A23.45,23.45,0,0,1,50.676,35,22.212,22.212,0,0,1,59.8,36.834a23.545,23.545,0,0,1,7.152,4.856,20.281,20.281,0,0,1,6.037,14.436Zm49.981-.132H109.58V57.832q0-4.853-2.69-7.153a9.971,9.971,0,0,0-12.729,0q-2.693,2.3-2.691,7.153v49.343q0,4.857,2.691,7.152a9.965,9.965,0,0,0,12.729,0q2.688-2.294,2.69-7.152V89.59H98.95V77.779h24.015v29.4A23.655,23.655,0,0,1,121,117.28a20.831,20.831,0,0,1-5.118,6.955,22.487,22.487,0,0,1-7.284,4.33,23.266,23.266,0,0,1-16.141,0,21,21,0,0,1-7.152-4.33,20,20,0,0,1-5.25-6.955,23.655,23.655,0,0,1-1.968-10.105V57.832a23.878,23.878,0,0,1,1.968-9.974A21.077,21.077,0,0,1,85.3,40.64a22.174,22.174,0,0,1,7.152-4.2,23.824,23.824,0,0,1,23.425,4.2A22,22,0,0,1,121,47.858a23.878,23.878,0,0,1,1.967,9.974Zm49.982,44.619a23.655,23.655,0,0,1-1.968,10.105,20.834,20.834,0,0,1-5.119,6.955,22.491,22.491,0,0,1-7.284,4.33,23.263,23.263,0,0,1-16.14,0,21.011,21.011,0,0,1-7.152-4.33,20,20,0,0,1-5.25-6.955,23.655,23.655,0,0,1-1.969-10.105V57.832a23.878,23.878,0,0,1,1.969-9.974,21.077,21.077,0,0,1,5.25-7.218,22.184,22.184,0,0,1,7.152-4.2,23.826,23.826,0,0,1,23.425,4.2,22,22,0,0,1,5.119,7.218,23.878,23.878,0,0,1,1.968,9.974Z" transform="translate(0)" fill="#fe9d2b"/></g></svg>